<svg clip-rule="evenodd" fill-rule="evenodd" stroke-linejoin="round" stroke-miterlimit="2" viewBox="82 155 395 90" xmlns="http://www.w3.org/2000/svg"><path d="m58.738.359h6.498l-3.27 23.322h-6.498l3.271-23.322zm-8.193 0-4.385 13.435-1.913-13.435h-4.545l-5.742 13.395-.717-13.394h-6.299l2.193 23.322h5.223l6.458-14.75 2.272 14.75h5.143l8.492-23.323zm54.558 13.555h-15.429c.08 3.03 1.894 5.023 4.565 5.023 2.014 0 3.608-1.077 4.844-3.13l5.208 2.368c-1.79 3.527-5.562 5.825-10.211 5.825-6.339 0-10.545-4.266-10.545-11.123 0-7.535 4.943-12.877 11.92-12.877 6.14 0 10.007 4.146 10.007 10.605 0 1.076-.12 2.152-.359 3.309zm-5.78-4.466c0-2.71-1.516-4.425-3.947-4.425-2.512 0-4.585 1.794-5.144 4.425zm-92.691-2.061-6.632 7.752h11.844l1.33-3.655h-5.074l3.1-3.586.01-.095-2.016-3.471h9.072l-7.032 19.35h4.812l8.492-23.324h-21.938l4.033 7.028zm69.168-2.364c2.292 0 4.3 1.233 6.055 3.346l.921-6.575c-1.633-1.106-3.846-1.794-6.776-1.794-5.82 0-9.09 3.409-9.09 7.734 0 3 1.675 4.834 4.426 6.02l1.315.598c2.452 1.047 3.11 1.565 3.11 2.671 0 1.146-1.106 1.874-2.79 1.874-2.782.01-5.034-1.415-6.728-3.847l-.94 6.699c1.931 1.471 4.405 2.251 7.667 2.251 5.532 0 8.93-3.19 8.93-7.615 0-3.01-1.335-4.943-4.704-6.458l-1.435-.678c-1.994-.887-2.671-1.375-2.671-2.352 0-1.056.927-1.874 2.71-1.874z" fill="#163300" fill-rule="nonzero" transform="matrix(3.75 0 0 3.75 82.2587 155)"/></svg>
